<?xml version="1.0" encoding="UTF-8" standalone="no"?>
<!-- Created with Inkscape (http://www.inkscape.org/) -->

<svg
   width="32.695705mm"
   height="35.818241mm"
   viewBox="0 0 32.695705 35.818241"
   version="1.1"
   id="svg1"
   inkscape:version="1.3 (0e150ed6c4, 2023-07-21)"
   sodipodi:docname="logo.svg"
   xmlns:inkscape="http://www.inkscape.org/namespaces/inkscape"
   xmlns:sodipodi="http://sodipodi.sourceforge.net/DTD/sodipodi-0.dtd"
   xmlns="http://www.w3.org/2000/svg"
   xmlns:svg="http://www.w3.org/2000/svg">
  <sodipodi:namedview
     id="namedview1"
     pagecolor="#ffffff"
     bordercolor="#000000"
     borderopacity="0.25"
     inkscape:showpageshadow="2"
     inkscape:pageopacity="0.0"
     inkscape:pagecheckerboard="0"
     inkscape:deskcolor="#d1d1d1"
     inkscape:document-units="mm"
     inkscape:zoom="2.9255612"
     inkscape:cx="17.432553"
     inkscape:cy="79.471933"
     inkscape:window-width="1920"
     inkscape:window-height="1017"
     inkscape:window-x="-8"
     inkscape:window-y="-8"
     inkscape:window-maximized="1"
     inkscape:current-layer="layer1" />
  <defs
     id="defs1" />
  <g
     inkscape:label="Layer 1"
     inkscape:groupmode="layer"
     id="layer1"
     transform="translate(-70.816204,-60.992052)">
    <path
       style="fill:#e72932;fill-opacity:1;stroke-width:0.264583"
       d="m 89.766061,76.634163 9.249611,-15.51706 c 0,0 -5.532757,-0.96334 -9.778703,2.457547 -8.458868,6.81517 -18.420765,27.69325 -18.420765,27.69325 0,0 5.427833,-6.820241 11.197337,-11.962058 4.08407,-3.639748 7.752523,-2.671678 7.752523,-2.671678 z"
       id="path1"
       sodipodi:nodetypes="ccscscc" />
    <path
       style="fill:#3c29e7;fill-opacity:1;stroke-width:0.264583"
       d="m 84.562054,81.168183 -9.24961,15.51706 c 0,0 5.53276,0.96334 9.77871,-2.457547 8.458861,-6.81517 18.420756,-27.69325 18.420756,-27.69325 0,0 -5.427825,6.820241 -11.197335,11.962058 -4.084067,3.639748 -7.752521,2.671678 -7.752521,2.671679 z"
       id="path1-7"
       sodipodi:nodetypes="ccscscc" />
  </g>
</svg>
