<?xml version="1.0" encoding="UTF-8" standalone="no"?>
<!-- Uploaded to: SVG Repo, www.svgrepo.com, Generator: SVG Repo Mixer Tools -->

<svg
   height="301"
   width="300"
   version="1.1"
   id="图层_1"
   viewBox="0 0 15 15.05"
   enable-background="new 0 0 40 40"
   xml:space="preserve"
   sodipodi:docname="upload.svg"
   inkscape:version="1.3 (0e150ed6c4, 2023-07-21)"
   xmlns:inkscape="http://www.inkscape.org/namespaces/inkscape"
   xmlns:sodipodi="http://sodipodi.sourceforge.net/DTD/sodipodi-0.dtd"
   xmlns="http://www.w3.org/2000/svg"
   xmlns:svg="http://www.w3.org/2000/svg"><defs
   id="defs7" /><sodipodi:namedview
   id="namedview7"
   pagecolor="#ffffff"
   bordercolor="#000000"
   borderopacity="0.25"
   inkscape:showpageshadow="2"
   inkscape:pageopacity="0.0"
   inkscape:pagecheckerboard="0"
   inkscape:deskcolor="#d1d1d1"
   inkscape:zoom="0.513125"
   inkscape:cx="16.565164"
   inkscape:cy="211.44945"
   inkscape:window-width="1920"
   inkscape:window-height="1017"
   inkscape:window-x="-8"
   inkscape:window-y="-8"
   inkscape:window-maximized="1"
   inkscape:current-layer="图层_1" />&#10;<g
   id="g7"
   style="fill:#ffffff;fill-opacity:1;stroke:none;stroke-opacity:1"
   transform="translate(-12.5,-12.45)">&#10;	<g
   id="g6"
   style="fill:#ffffff;fill-opacity:1;stroke:none;stroke-opacity:1">&#10;		<g
   id="g5"
   style="fill:#ffffff;fill-opacity:1;stroke:none;stroke-opacity:1">&#10;			<g
   id="g3"
   style="fill:#ffffff;fill-opacity:1;stroke:none;stroke-opacity:1">&#10;				<g
   id="g1"
   style="fill:#ffffff;fill-opacity:1;stroke:none;stroke-opacity:1">&#10;					<path
   fill="#231815"
   d="m 23,16.5 c -0.1,0 -0.3,0 -0.4,-0.1 L 20,13.7 17.4,16.3 c -0.2,0.2 -0.5,0.2 -0.7,0 -0.2,-0.2 -0.2,-0.5 0,-0.7 l 3,-3 c 0.2,-0.2 0.5,-0.2 0.7,0 l 3,3 c 0.2,0.2 0.2,0.5 0,0.7 -0.1,0.2 -0.3,0.2 -0.4,0.2 z"
   id="path1"
   style="fill:#ffffff;fill-opacity:1;stroke:none;stroke-opacity:1" />&#10;				</g>&#10;				<g
   id="g2"
   style="fill:#ffffff;fill-opacity:1;stroke:none;stroke-opacity:1">&#10;					<path
   fill="#231815"
   d="m 20,22 c -0.3,0 -0.5,-0.2 -0.5,-0.5 v -8 c 0,-0.3 0.2,-0.5 0.5,-0.5 0.3,0 0.5,0.2 0.5,0.5 v 8 c 0,0.3 -0.2,0.5 -0.5,0.5 z"
   id="path2"
   style="fill:#ffffff;fill-opacity:1;stroke:none;stroke-opacity:1" />&#10;				</g>&#10;			</g>&#10;			<g
   id="g4"
   style="fill:#ffffff;fill-opacity:1;stroke:none;stroke-opacity:1">&#10;				<path
   fill="#231815"
   d="M 25,27.5 H 15 c -1.4,0 -2.5,-1.1 -2.5,-2.5 v -2 c 0,-0.3 0.2,-0.5 0.5,-0.5 0.3,0 0.5,0.2 0.5,0.5 v 2 c 0,0.8 0.7,1.5 1.5,1.5 h 10 c 0.8,0 1.5,-0.7 1.5,-1.5 v -2 c 0,-0.3 0.2,-0.5 0.5,-0.5 0.3,0 0.5,0.2 0.5,0.5 v 2 c 0,1.4 -1.1,2.5 -2.5,2.5 z"
   id="path3"
   style="fill:#ffffff;fill-opacity:1;stroke:none;stroke-opacity:1" />&#10;			</g>&#10;		</g>&#10;	</g>&#10;</g>&#10;</svg>
